<?xml version="1.0" encoding="UTF-8"?>
<svg version="1.1" xmlns="http://www.w3.org/2000/svg" width="1537" height="662">
<path d="M0 0 C0.33 0.99 0.66 1.98 1 3 C0.50063431 3.22169357 0.00126862 3.44338715 -0.51322937 3.67179871 C-33.43572224 18.28467904 -33.43572224 18.28467904 -66.3125 33 C-70.93164259 35.07589702 -75.55734324 37.13629077 -80.1875 39.1875 C-168.31383323 76.07386746 -168.31383323 76.07386746 -226 148 C-237.20515096 178.79860242 -234.08182436 211.29015084 -221 241 C-213.50173567 256.93381171 -202.251818 270.58874218 -191 284 C-188.28663738 281.52653834 -186.471507 278.77424506 -184.5 275.6875 C-142.74406904 212.52216443 -70.90426621 182.23481613 0.94970703 167.390625 C1.62630371 167.26171875 2.30290039 167.1328125 3 167 C1.7474616 170.75761521 0.62067316 171.15466636 -2.6875 173.25 C-4.31558594 174.30380859 -4.31558594 174.30380859 -5.9765625 175.37890625 C-6.6046582 175.78512207 -7.23275391 176.19133789 -7.87988281 176.60986328 C-12.1481337 179.40850683 -16.34984966 182.30615963 -20.5625 185.1875 C-22.48826835 186.50262305 -24.41404967 187.81772712 -26.33984375 189.1328125 C-27.29101074 189.78282227 -28.24217773 190.43283203 -29.22216797 191.10253906 C-31.79398772 192.85927866 -34.36741136 194.61363718 -36.94140625 196.3671875 C-41.6351946 199.56712246 -46.32059376 202.77907263 -51 206 C-51.82242188 206.5657373 -52.64484375 207.13147461 -53.4921875 207.71435547 C-68.96366816 218.38075127 -84.21946692 229.18207768 -98 242 C-99.35022913 243.17122148 -100.70426491 244.33807233 -102.0625 245.5 C-141.46102306 279.99348605 -164.68115642 334.27310666 -168.47265625 385.9375 C-169.53821998 403.57973436 -168.85685725 421.27930182 -165.40795898 438.64233398 C-164.92136462 441.45444758 -164.84608811 444.15263007 -165 447 C-175.25599754 437.70550223 -181.68808526 425.11426134 -188 413 C-188.41540039 412.20335937 -188.83080078 411.40671875 -189.25878906 410.5859375 C-204.5521599 380.83620595 -214.5242247 347.96221217 -219.19067383 314.86914062 C-220.11970961 308.55523136 -220.11970961 308.55523136 -223.171875 303.07421875 C-224.10515625 302.38972656 -225.0384375 301.70523437 -226 301 C-226.56436768 300.5671167 -227.12873535 300.1342334 -227.71020508 299.68823242 C-229.63890809 298.21817666 -231.59749526 296.79608805 -233.5625 295.375 C-240.84752774 290.00994061 -247.4837664 284.27526348 -254 278 C-254.64066406 277.41089844 -255.28132813 276.82179688 -255.94140625 276.21484375 C-276.70934146 256.60335969 -291.51281627 225.04964008 -293.20458984 196.55395508 C-293.303598 192.78335265 -293.328888 189.02185216 -293.3125 185.25 C-293.31067719 184.58636444 -293.30885437 183.92272888 -293.30697632 183.23898315 C-293.26164878 173.44483993 -292.83616242 164.42337836 -290 155 C-289.6596875 153.7934375 -289.319375 152.586875 -288.96875 151.34375 C-275.92581702 108.68983403 -242.55419261 78.51385419 -204.34765625 57.9296875 C-198.60271015 54.87796831 -192.81270628 51.92023359 -187 49 C-186.25427734 48.62246582 -185.50855469 48.24493164 -184.74023438 47.85595703 C-134.36350137 22.53677276 -76.84052205 10.44908832 -21.4375 2 C-20.74572662 1.89377319 -20.05395325 1.78754639 -19.34121704 1.67810059 C-12.83059184 0.68911509 -6.59756045 -0.10828475 0 0 Z " fill="#FBFAF6" transform="translate(504,215)"/>
<path d="M0 0 C2.02914381 -0.00693601 4.05821406 -0.01858597 6.08732986 -0.03116226 C58.45571803 -0.27212545 133.65782494 4.65035299 174.44740677 42.36791611 C175.35490677 43.17229111 176.26240677 43.97666611 177.19740677 44.80541611 C184.74925866 53.40613631 188.03232348 61.06302007 187.81459427 72.59057236 C185.90649216 92.21966529 171.09659089 111.49949433 156.37636185 123.84960556 C146.83038895 131.48718684 136.45378478 137.71595789 124.44740677 140.36791611 C125.7123619 136.36706791 127.17941026 132.62852297 129.01381302 128.85619736 C129.49914505 127.85137314 129.98447708 126.84654892 130.48451614 125.81127548 C130.98789505 124.77809189 131.49127396 123.74490829 132.00990677 122.68041611 C133.01278223 120.614773 134.01415507 118.54839948 135.01381302 116.48119736 C135.45668655 115.57152206 135.89956009 114.66184677 136.35585403 113.72460556 C139.04886339 107.91033151 139.86084898 101.28418527 137.64662552 95.14916611 C129.43470513 80.92645864 111.90179794 73.15283916 96.71352005 68.95336533 C72.47143055 62.69043378 47.38216243 59.26100062 22.34584427 59.16479111 C21.12257431 59.15782211 19.89930435 59.15085312 18.63896561 59.14367294 C14.7000968 59.12633882 10.76130537 59.11949491 6.82240677 59.11791611 C6.1514296 59.11732697 5.48045242 59.11673782 4.78914261 59.11613083 C-16.47329331 59.1029494 -37.44304625 59.6644025 -58.55259323 62.36791611 C-60.29234421 62.57674423 -60.29234421 62.57674423 -62.06724167 62.78979111 C-109.49212357 68.5431045 -156.31409443 80.18261453 -201.55259323 95.36791611 C-202.3214183 95.62588974 -203.09024338 95.88386337 -203.88236618 96.14965439 C-224.70017052 103.14032197 -224.70017052 103.14032197 -245.34263229 110.62743759 C-248.69756218 111.75155407 -251.06705499 112.03821192 -254.55259323 111.36791611 C-260.91006558 107.81608883 -264.91424527 101.10900627 -269.08579636 95.36449814 C-272.08370575 91.28378858 -275.16820956 87.26804243 -278.24009323 83.24291611 C-278.92869431 82.34041122 -279.61729538 81.43790634 -280.32676315 80.50805283 C-282.40017069 77.7932384 -284.47590105 75.08021856 -286.55259323 72.36791611 C-287.17923874 71.54855576 -287.80588425 70.7291954 -288.45151901 69.88500595 C-298.99128844 56.12827879 -309.67240444 42.83458614 -322.18540573 30.80834579 C-323.67555819 29.3628642 -325.11893134 27.86944365 -326.55259323 26.36791611 C-326.55259323 25.70791611 -326.55259323 25.04791611 -326.55259323 24.36791611 C-302.34355287 18.15111467 -281.26065989 25.93414021 -259.14048386 35.40014267 C-257.59303273 36.06214355 -256.04423649 36.72101052 -254.49399948 37.37646103 C-253.08603534 37.97330857 -251.68197119 38.57948916 -250.28306198 39.19726181 C-240.4968107 43.36259679 -233.25078077 41.96213883 -223.17759323 39.31713486 C-221.86377813 38.98298265 -220.54963691 38.65011043 -219.23519516 38.31843185 C-216.44916917 37.61263505 -213.66558141 36.89814947 -210.8836174 36.17650986 C-206.51926217 35.04455613 -202.14980383 33.93328049 -197.77939987 32.82494736 C-189.36635972 30.68850858 -180.95918085 28.52957915 -172.55259323 26.36791611 C-135.86799161 16.94978679 -99.12548248 8.41545864 -61.55259323 3.36791611 C-60.40758347 3.20420517 -59.2625737 3.04049423 -58.08286667 2.87182236 C-38.79050554 0.20014774 -19.44092307 0.05571195 0 0 Z " fill="#FBFAF6" transform="translate(534.5525932312012,-0.3679161071777344)"/>
<path d="M0 0 C7.02072907 6.34596792 11.20476188 15.19428977 11.7109375 24.6171875 C11.73457237 26.16133236 11.74741752 27.70567643 11.75 29.25 C11.77449219 29.9821875 11.79898438 30.714375 11.82421875 31.46875 C11.89305168 45.18944733 6.81152254 58.7983062 2.28796387 71.58358765 C1.47501387 73.88317823 0.67414292 76.18669439 -0.12402344 78.49145508 C-2.21035807 84.50884476 -4.31565226 90.51898151 -6.4609375 96.515625 C-23.35280905 144.36848966 -28.48743567 196.03196674 -23.89501953 246.37939453 C-23.44466447 251.37564821 -23.03623704 256.37539808 -22.625 261.375 C-47.84439757 236.96152238 -49.9849789 188.61894877 -50.67297363 156.1080246 C-50.86425297 141.961215 -50.65504603 127.80709545 -50.50854492 113.66064453 C-50.46551562 109.40618746 -50.43764144 105.1518283 -50.41824532 100.89720154 C-50.40284824 98.54579468 -50.3699664 96.19507779 -50.33641052 93.84387207 C-50.24608609 82.73765165 -50.61852183 70.5223465 -57.625 61.375 C-63.36184414 56.80894038 -68.45495532 56.62475403 -75.625 57.375 C-80.58946901 58.58284214 -85.37740763 60.22956755 -90.1875 61.9375 C-91.51346437 62.39479248 -92.83980272 62.85100195 -94.16650391 63.30615234 C-104.08640646 66.7328454 -113.911564 70.40012511 -123.625 74.375 C-118.65348479 85.03742279 -113.53604465 95.61469462 -108.25 106.125 C-102.65961136 117.24794287 -97.23034883 128.43806547 -91.90380859 139.68945312 C-90.64346389 142.33622512 -89.36552499 144.97376212 -88.08203125 147.609375 C-77.07547398 170.30076479 -77.07547398 170.30076479 -78.0390625 175.69140625 C-78.23242188 176.24699219 -78.42578125 176.80257812 -78.625 177.375 C-89.62286417 167.37532123 -100.17228443 156.93922371 -110.6875 146.4375 C-111.3707132 145.75678436 -112.05392639 145.07606873 -112.75784302 144.37472534 C-119.60105536 137.55201424 -126.37731692 130.75459801 -132.625 123.375 C-134.44044458 121.35794212 -136.2833218 119.36834581 -138.125 117.375 C-141.76765256 113.42001384 -145.36001574 109.42935984 -148.8828125 105.3671875 C-150.94000399 103.01479365 -153.03096915 100.69465034 -155.125 98.375 C-157.77613994 95.43821535 -160.40790171 92.48897458 -163 89.5 C-166.45110439 85.53524286 -170.00892084 81.67078334 -173.57104492 77.80615234 C-176.19823507 74.95041249 -178.7820158 72.0666155 -181.3125 69.125 C-183.70573168 66.35782587 -186.20877651 63.7577197 -188.8125 61.1875 C-194.6216853 55.42352236 -194.6216853 55.42352236 -196.625 52.375 C-195.625 49.375 -195.625 49.375 -193.56005859 48.12670898 C-192.64047363 47.71235596 -191.72088867 47.29800293 -190.7734375 46.87109375 C-189.71439209 46.38688965 -188.65534668 45.90268555 -187.56420898 45.40380859 C-186.38802002 44.87867676 -185.21183105 44.35354492 -184 43.8125 C-182.75742027 43.2492533 -181.51532622 42.68493409 -180.27368164 42.11962891 C-178.25936652 41.20297874 -176.24458144 40.28746915 -174.22798157 39.37585449 C-168.81095852 36.92561151 -163.41983119 34.42278001 -158.03515625 31.90234375 C-33.88909189 -26.13668525 -33.88909189 -26.13668525 0 0 Z " fill="#FBFAF6" transform="translate(196.625,106.625)"/>
<path d="M0 0 C3.69198307 3.06002201 6.62017932 5.52161861 7.79296875 10.359375 C8.47359375 9.658125 9.15421875 8.956875 9.85546875 8.234375 C19.94330365 -1.74074666 30.19332547 -7.50333119 44.60546875 -7.953125 C56.50617326 -7.71117929 68.21972388 -4.1373619 77.10546875 3.984375 C88.98124803 16.81981321 88.09206293 34.54806621 87.98828125 50.91015625 C87.98454188 52.66277402 87.98169928 54.4153939 87.97970581 56.16801453 C87.97214203 60.73654149 87.95255767 65.30493725 87.93029785 69.87341309 C87.90968131 74.55296047 87.9006706 79.23252947 87.890625 83.91210938 C87.86930344 93.06126425 87.83418228 102.21028809 87.79296875 111.359375 C78.88296875 111.359375 69.97296875 111.359375 60.79296875 111.359375 C60.78362305 109.14500732 60.77427734 106.93063965 60.76464844 104.64916992 C60.73073818 97.29693101 60.67511207 89.94496864 60.60906601 82.59295177 C60.5697153 78.13950916 60.53746645 73.6862606 60.52197266 69.23266602 C60.50672371 64.92707807 60.47213426 60.62202408 60.42465973 56.31667519 C60.40993026 54.6818642 60.40193263 53.04697695 60.4010849 51.41209984 C60.58809951 36.41203519 60.58809951 36.41203519 54.043396 23.37101746 C48.58429781 18.2799223 43.07102704 16.82545269 35.7109375 16.984375 C30.06681819 17.70972367 25.15230806 19.97788227 21.12890625 24.0390625 C16.73330404 29.82274961 15.49663218 35.83621188 15.47412109 43.01708984 C15.46407547 43.75923737 15.45402985 44.50138489 15.44367981 45.26602173 C15.41297387 47.70077798 15.39584807 50.13542491 15.37890625 52.5703125 C15.36018444 54.26568535 15.34061028 55.96104898 15.32022095 57.65640259 C15.26900067 62.10490472 15.22932103 66.55343702 15.19207764 71.0020752 C15.15197448 75.54703169 15.10091099 80.09186375 15.05078125 84.63671875 C14.95414159 93.5441919 14.87071245 102.45171686 14.79296875 111.359375 C5.88296875 111.359375 -3.02703125 111.359375 -12.20703125 111.359375 C-12.21637695 109.04365479 -12.22572266 106.72793457 -12.23535156 104.34204102 C-12.26921161 96.66649177 -12.3248105 88.99120882 -12.39093399 81.31587315 C-12.43034006 76.6650768 -12.4625621 72.01446785 -12.47802734 67.36352539 C-12.49323938 62.86992395 -12.52776494 58.37683792 -12.57534027 53.88346672 C-12.59010737 52.17443271 -12.59806957 50.46532509 -12.5989151 48.75622749 C-12.51429882 34.52093539 -12.51429882 34.52093539 -19.0234375 22.203125 C-19.59964844 21.7596875 -20.17585938 21.31625 -20.76953125 20.859375 C-21.63771484 20.16328125 -21.63771484 20.16328125 -22.5234375 19.453125 C-27.45761394 16.24762754 -33.5811803 16.75709412 -39.20703125 17.359375 C-45.75251195 19.45104376 -50.45768383 22.61818676 -54.20703125 28.359375 C-56.07467033 32.9441708 -56.51053364 37.12205808 -56.52587891 42.01708984 C-56.53592453 42.75923737 -56.54597015 43.50138489 -56.55632019 44.26602173 C-56.58702613 46.70077798 -56.60415193 49.13542491 -56.62109375 51.5703125 C-56.63981556 53.26568535 -56.65938972 54.96104898 -56.67977905 56.65640259 C-56.73099933 61.10490472 -56.77067897 65.55343702 -56.80792236 70.0020752 C-56.84802552 74.54703169 -56.89908901 79.09186375 -56.94921875 83.63671875 C-57.04585841 92.5441919 -57.12928755 101.45171686 -57.20703125 110.359375 C-66.11703125 110.359375 -75.02703125 110.359375 -84.20703125 110.359375 C-84.20703125 72.739375 -84.20703125 35.119375 -84.20703125 -3.640625 C-75.95703125 -3.640625 -67.70703125 -3.640625 -59.20703125 -3.640625 C-58.87703125 -0.670625 -58.54703125 2.299375 -58.20703125 5.359375 C-57.75714844 4.91207031 -57.30726562 4.46476562 -56.84375 4.00390625 C-41.72776546 -10.20330166 -16.97332528 -12.61733914 0 0 Z " fill="#FBFAF6" transform="translate(1317.20703125,456.640625)"/>
<path d="M0 0 C8.25 0 16.5 0 25 0 C25 54.12 25 108.24 25 164 C17.41 164 9.82 164 2 164 C0.57090359 160.42725897 -0.36738317 157.69026484 -1 154 C-1.94875 154.886875 -2.8975 155.77375 -3.875 156.6875 C-12.77559848 164.29346598 -23.13992967 167.39918215 -34.6875 167.3125 C-35.47060547 167.30758545 -36.25371094 167.3026709 -37.06054688 167.29760742 C-52.82992343 166.98331588 -65.08943829 161.89882413 -76.30078125 150.890625 C-89.11909113 137.16334669 -92.71531382 119.26571974 -92.3125 101.1171875 C-91.50941144 83.22838983 -84.07865351 68.05884058 -71 56 C-58.88563772 46.61749236 -43.95351058 44.12319501 -29 45 C-17.69967856 46.73745862 -9.22045634 51.41395976 0 58 C0 38.86 0 19.72 0 0 Z M-51.73828125 76.4921875 C-59.53633523 85.1387344 -63.3723367 95.2919158 -62.94140625 107.03125 C-62.27469763 115.91787178 -59.75482379 123.42088238 -55 131 C-54.61972656 131.61359375 -54.23945312 132.2271875 -53.84765625 132.859375 C-49.95361986 138.23619393 -43.20398705 141.93200432 -37 144 C-27.93626045 144.82504781 -20.49053482 144.49037409 -13 139 C-4.805355 132.04258571 -0.73800628 121.43464614 0.84765625 110.984375 C1.44049401 99.37083522 -1.2257932 86.90988995 -8.4765625 77.59375 C-14.74626656 71.03467498 -22.20999222 68.50459593 -31 67 C-39.62681606 67 -45.67396904 70.57067699 -51.73828125 76.4921875 Z " fill="#FBFAF6" transform="translate(1328,215)"/>
<path d="M0 0 C8.58 0 17.16 0 26 0 C26 53.79 26 107.58 26 163 C17.75 163 9.5 163 1 163 C0.34 159.7 -0.32 156.4 -1 153 C-1.67804688 153.53109375 -2.35609375 154.0621875 -3.0546875 154.609375 C-14.4788814 163.28036982 -24.64469731 166.91776965 -39 166 C-53.97389526 163.84391733 -67.55774766 156.31011175 -76.9921875 144.5078125 C-88.04502135 128.52152491 -90.52924634 107.39642461 -87.3515625 88.4921875 C-84.30320905 73.75992825 -76.25263337 60.62383421 -63.6875 52.1875 C-50.76755019 44.45347449 -37.20740296 42.13585297 -22.4375 45.125 C-14.31746884 47.1745271 -7.65828144 51.00628892 -1 56 C-0.67 37.52 -0.34 19.04 0 0 Z M-51 76 C-57.75479059 83.47565757 -61.4367565 92.48242351 -62.19140625 102.5546875 C-61.52736808 114.50737448 -56.97931005 127.56779689 -48.15625 135.69921875 C-42.04729531 140.70516773 -35.01691799 143.6615199 -27.03125 143.28125 C-18.8199577 142.14430183 -11.9248929 138.55695358 -6.49609375 132.25390625 C1.52876093 120.73165221 1.13558748 105.44760549 0 92 C-1.58379403 83.35512427 -5.96357541 76.49429812 -13.20703125 71.46875 C-26.8181137 63.49223831 -39.70021167 64.91024491 -51 76 Z " fill="#FBFAF6" transform="translate(1063,405)"/>
<path d="M0 0 C8.91 0 17.82 0 27 0 C27.33 18.48 27.66 36.96 28 56 C33.61 53.03 39.22 50.06 45 47 C58.07204869 43.26512895 69.42178525 43.85092704 81.390625 50.28515625 C92.02689277 56.77906803 98.52657079 66.20302744 102 78 C102.29605749 80.61952656 102.50487546 83.15116034 102.6171875 85.77734375 C102.65472137 86.54827866 102.69225525 87.31921356 102.73092651 88.11351013 C103.16537233 98.14132278 103.14948453 108.17833229 103.13037109 118.21362305 C103.12500228 121.56108108 103.13035523 124.90840533 103.13671875 128.25585938 C103.14003186 140.21785171 102.84993523 152.06717917 102 164 C93.42 164 84.84 164 76 164 C75.9906543 161.84621826 75.98130859 159.69243652 75.97167969 157.47338867 C75.93776291 150.32071493 75.88213332 143.16832525 75.81609726 136.01587963 C75.77675367 131.68350499 75.74450142 127.3513296 75.72900391 123.01879883 C75.71375014 118.82991333 75.67915255 114.64157613 75.63169098 110.45293617 C75.61696638 108.86278387 75.60896416 107.27255324 75.60811615 105.68233299 C75.59710624 95.37934788 75.33631057 85.5082864 68.6875 77.0625 C67.800625 76.381875 66.91375 75.70125 66 75 C65.01 74.236875 64.02 73.47375 63 72.6875 C57.21042497 69.58367969 49.78703931 69.96102331 43.59375 71.66015625 C36.70177632 74.72178302 32.52016642 80.20724831 29.64981651 87.04112434 C28.58500344 90.25100955 28.59599595 93.31488069 28.56762695 96.67944336 C28.5574353 97.41198334 28.54724365 98.14452332 28.53674316 98.89926147 C28.5067926 101.29620184 28.49737514 103.69274143 28.48828125 106.08984375 C28.47142119 107.76137094 28.45326916 109.43288556 28.43388367 111.10438538 C28.38652146 115.48548451 28.35662324 119.86653264 28.33044434 124.24780273 C28.300569 128.72585113 28.25406273 133.20372403 28.20898438 137.68164062 C28.12310801 146.45435512 28.05723206 155.22705182 28 164 C18.76 164 9.52 164 0 164 C0 109.88 0 55.76 0 0 Z " fill="#FBFAF6" transform="translate(737,215)"/>
<path d="M0 0 C6.77483103 5.25158208 9.99026648 12.0584313 11.58982849 20.3260498 C12.54862812 27.91211103 12.25150753 35.60106677 12.20703125 43.234375 C12.20329534 45.1258021 12.2004511 47.01723115 12.19845581 48.90866089 C12.19086481 53.85698913 12.17125585 58.80519766 12.14904785 63.753479 C12.12849115 68.81480287 12.11943319 73.87614631 12.109375 78.9375 C12.0880052 88.84640641 12.05392474 98.75522445 12.01171875 108.6640625 C8.94868297 108.74522243 5.8878106 108.80463659 2.82421875 108.8515625 C1.95990234 108.87669922 1.09558594 108.90183594 0.20507812 108.92773438 C-4.68054797 108.983891 -8.04949987 108.91437966 -11.98828125 105.6640625 C-13.444754 103.06428349 -14.09390739 100.5354733 -14.98828125 97.6640625 C-15.44976563 98.03917969 -15.91125 98.41429687 -16.38671875 98.80078125 C-26.77614916 106.9521723 -37.14775427 111.06975147 -50.36328125 110.9765625 C-51.20109131 110.97092285 -52.03890137 110.9652832 -52.90209961 110.95947266 C-64.90894249 110.7237469 -75.280673 106.77566978 -83.86328125 98.1015625 C-89.48014897 91.15683007 -91.6847286 81.82227092 -91.2421875 73 C-90.22770789 63.66678759 -87.37445366 56.86729625 -80.80078125 50.0390625 C-76.88302053 46.8934568 -72.72644771 45.28970388 -68 43.7578125 C-67.21661255 43.50079559 -66.4332251 43.24377869 -65.62609863 42.97897339 C-56.22147754 39.98176274 -46.6265442 37.87864922 -36.98828125 35.7890625 C-35.15997299 35.38363807 -33.33184686 34.97739135 -31.50390625 34.5703125 C-29.76969143 34.18677501 -28.0353223 33.80393442 -26.30078125 33.421875 C-25.49261963 33.24383331 -24.68445801 33.06579163 -23.85180664 32.88235474 C-18.22640766 31.6640625 -18.22640766 31.6640625 -15.98828125 31.6640625 C-18.08665903 24.61598185 -19.58414385 19.60507013 -25.98828125 15.6640625 C-32.86128924 12.10404779 -39.35997734 11.5150996 -46.73828125 13.8515625 C-51.1484803 16.31109659 -54.01028766 18.98191353 -56.55078125 23.3515625 C-58.21792604 26.03349107 -59.08051924 26.54902299 -61.98828125 27.6640625 C-64.64550781 27.89111328 -64.64550781 27.89111328 -67.62890625 27.859375 C-68.69882812 27.85292969 -69.76875 27.84648437 -70.87109375 27.83984375 C-71.98226562 27.82308594 -73.0934375 27.80632812 -74.23828125 27.7890625 C-75.36492188 27.78003906 -76.4915625 27.77101563 -77.65234375 27.76171875 C-80.4312049 27.73816908 -83.20963515 27.7052793 -85.98828125 27.6640625 C-84.62178994 16.6726253 -82.3371146 7.41200873 -73.34375 0.2578125 C-51.56164761 -14.48032643 -21.9568978 -14.75296473 0 0 Z M-33.09521484 56.43505859 C-35.21492127 56.90884123 -37.33764949 57.36679649 -39.4609375 57.82421875 C-51.33369315 60.15218976 -51.33369315 60.15218976 -60.98828125 66.9140625 C-62.31955264 70.57505882 -62.65482062 73.85205641 -61.98828125 77.6640625 C-59.56568558 82.50925385 -56.65131242 84.98529992 -51.98828125 87.6640625 C-44.96476294 90.00523527 -38.05877565 89.03752227 -31.37890625 86.0546875 C-23.31635948 81.36470932 -18.87044867 74.31056475 -15.98828125 65.6640625 C-15.91929025 63.60261143 -15.90360398 61.53904849 -15.92578125 59.4765625 C-15.93480469 58.38988281 -15.94382812 57.30320312 -15.953125 56.18359375 C-15.96472656 55.35214844 -15.97632813 54.52070313 -15.98828125 53.6640625 C-21.85560802 53.6640625 -27.39658814 55.15401255 -33.09521484 56.43505859 Z " fill="#FBFAF6" transform="translate(949.98828125,271.3359375)"/>
<path d="M0 0 C8.29936693 6.60176915 12.95425056 14.40693897 14.40625 24.9140625 C14.51972457 27.71867576 14.59043851 30.50118663 14.61157227 33.30615234 C14.62147186 34.12632843 14.63137146 34.94650452 14.64157104 35.79153442 C14.6730042 38.4859942 14.69787111 41.18047157 14.72265625 43.875 C14.7432415 45.74972984 14.76423838 47.6244552 14.78562927 49.49917603 C14.84068769 54.42116661 14.89016822 59.34319795 14.93847656 64.26525879 C14.98881045 69.29276128 15.04443433 74.32020497 15.09960938 79.34765625 C15.20699231 89.20307651 15.30799183 99.05854704 15.40625 108.9140625 C7.48625 108.9140625 -0.43375 108.9140625 -8.59375 108.9140625 C-9.25375 105.6140625 -9.91375 102.3140625 -10.59375 98.9140625 C-11.82738281 99.71070313 -11.82738281 99.71070313 -13.0859375 100.5234375 C-28.03258053 110.03595956 -41.45198801 114.46088021 -59.40625 110.7265625 C-70.47852895 107.81068321 -77.84860235 102.4661989 -83.98046875 92.70703125 C-87.95680293 84.51717805 -88.06453059 73.86328736 -85.8984375 65.1015625 C-84.97213586 62.85975684 -83.91884799 60.9431188 -82.59375 58.9140625 C-82.18125 58.22054687 -81.76875 57.52703125 -81.34375 56.8125 C-73.75295032 45.29691185 -60.01777375 42.20337429 -47.26731873 39.51330566 C-43.54651752 38.75253643 -39.8212423 38.01626061 -36.09375 37.2890625 C-33.80664755 36.84053522 -31.52003582 36.38993412 -29.23449707 35.9335022 C-27.8274798 35.65267996 -26.41955972 35.37632895 -25.01062012 35.10531616 C-21.35830755 34.37823008 -17.95124845 33.54853099 -14.59375 31.9140625 C-13.50865527 30.06850977 -13.50865527 30.06850977 -13.59375 27.9140625 C-15.91083423 21.84378454 -20.19292056 18.21456938 -25.59375 14.9140625 C-31.53800799 12.93264317 -38.92879973 12.79590775 -44.78125 15.2265625 C-49.45741369 17.91266072 -52.49604421 22.32213241 -55.7109375 26.55078125 C-57.59375 28.9140625 -57.59375 28.9140625 -59.59375 29.9140625 C-61.3341917 29.99855878 -63.07784722 30.02129274 -64.8203125 30.01171875 C-65.8515625 30.00849609 -66.8828125 30.00527344 -67.9453125 30.00195312 C-69.56566406 29.98938477 -69.56566406 29.98938477 -71.21875 29.9765625 C-72.85070312 29.96979492 -72.85070312 29.96979492 -74.515625 29.96289062 C-77.20838789 29.95108026 -79.90104188 29.93461028 -82.59375 29.9140625 C-81.37577756 19.40103726 -79.60419562 10.41493779 -71.59375 2.9140625 C-51.51874074 -12.73896616 -21.18725239 -14.64413033 0 0 Z M-27.75610352 57.11230469 C-29.34273922 57.47704853 -30.93029911 57.83779761 -32.51879883 58.19433594 C-34.8182971 58.71083937 -37.11434769 59.24080205 -39.41015625 59.7734375 C-40.10943741 59.92778259 -40.80871857 60.08212769 -41.52919006 60.2411499 C-47.44092485 61.63738236 -53.53397823 63.53245139 -57.59375 68.2265625 C-59.45533895 73.22958281 -59.09335169 76.68587501 -57.09375 81.6015625 C-53.9928119 86.4264487 -49.60615585 88.21068271 -44.16796875 89.48046875 C-36.7253439 90.58007895 -31.05173786 89.43221318 -24.94921875 84.98828125 C-18.60135851 79.60700588 -14.19478019 74.26660677 -12.59375 65.9140625 C-12.52631652 63.83171658 -12.50860528 61.74737693 -12.53125 59.6640625 C-12.54027344 58.58640625 -12.54929687 57.50875 -12.55859375 56.3984375 C-12.57019531 55.57859375 -12.58179688 54.75875 -12.59375 53.9140625 C-17.47059434 53.9140625 -23.00075457 56.01337746 -27.75610352 57.11230469 Z " fill="#FBFAF6" transform="translate(944.59375,459.0859375)"/>
<path d="M0 0 C6.59308807 5.98566345 10.57967743 13.20956045 12 22 C12.11573076 24.8279536 12.1846155 27.63364699 12.20532227 30.4621582 C12.21522186 31.3016954 12.22512146 32.1412326 12.23532104 33.00621033 C12.26681598 35.77103897 12.29164585 38.53588478 12.31640625 41.30078125 C12.33698615 43.22178077 12.3579829 45.14277588 12.37937927 47.06376648 C12.43449292 52.11235973 12.48394932 57.16099313 12.53222656 62.20965576 C12.58251987 67.36441609 12.63816503 72.51911835 12.69335938 77.67382812 C12.80080997 87.78250425 12.90178915 97.89122988 13 108 C5.41 108 -2.18 108 -10 108 C-11.32 105.03 -12.64 102.06 -14 99 C-14.67804688 99.45890625 -15.35609375 99.9178125 -16.0546875 100.390625 C-29.57525436 109.30446132 -42.60975463 113.24228846 -58.77734375 110.31640625 C-69.36364723 107.54626604 -77.63371429 103.04790444 -84 94 C-88.76124191 85.79096222 -89.11396691 76.82483901 -87.3515625 67.609375 C-85.34528997 60.23589478 -82.62850439 55.16694138 -77 50 C-76.21625 49.2575 -75.4325 48.515 -74.625 47.75 C-67.07903234 42.71935489 -58.84303665 40.82369762 -50.0625 39 C-48.87914062 38.74436279 -47.69578125 38.48872559 -46.4765625 38.2253418 C-41.103373 37.06618263 -35.72341487 35.94181529 -30.33984375 34.83203125 C-29.09738892 34.5700293 -29.09738892 34.5700293 -27.82983398 34.30273438 C-26.31978735 33.98499638 -24.80762861 33.67707433 -23.29321289 33.38085938 C-19.70590673 32.62517881 -17.24539425 32.01937484 -15 29 C-17.92871805 22.04935578 -20.38964932 17.79483095 -27 14 C-33.38942085 11.87019305 -41.40009033 11.80395736 -47.5625 14.6875 C-53.52285625 18.26872245 -55.24639201 22.57491468 -58 29 C-66.25 29 -74.5 29 -83 29 C-83 17.72073442 -81.03557622 10.14522346 -73 2 C-53.01580126 -14.87725038 -20.8352143 -15.63543812 0 0 Z M-30.17700195 56.34375 C-32.16103761 56.74465289 -34.14767176 57.13021328 -36.13476562 57.515625 C-48.11795469 59.89869515 -48.11795469 59.89869515 -58 66.75 C-60.66223057 71.07612468 -60.63697474 72.98382396 -60 78 C-58.21316424 82.13793544 -55.77356238 84.56814869 -52 87 C-44.03833144 89.786584 -37.50176175 89.36802296 -29.8125 85.875 C-22.07436503 81.65201782 -18.46144778 76.22140019 -15.6796875 67.93359375 C-14.59913935 63.26984859 -14.6689938 58.75361679 -15 54 C-20.15166653 54 -25.14231717 55.31870222 -30.17700195 56.34375 Z " fill="#FBFAF6" transform="translate(713,460)"/>
<path d="M0 0 C10.63935546 8.54768634 15.11974404 21.41759219 16.67480469 34.58813477 C17.42117811 41.61375051 17.69140625 48.30144789 17.69140625 55.41015625 C-9.03859375 55.41015625 -35.76859375 55.41015625 -63.30859375 55.41015625 C-61.26359201 71.84939112 -61.26359201 71.84939112 -51.2421875 83.00390625 C-45.62422916 87.08969414 -38.7704816 87.80775022 -31.94140625 87.19921875 C-23.80057636 85.70626379 -17.86714833 81.21772707 -11.94921875 75.64453125 C-8.73794968 73.22843357 -5.2252148 73.28871344 -1.32421875 73.3125 C-0.38964844 73.31572266 0.54492188 73.31894531 1.5078125 73.32226562 C2.47589844 73.33064453 3.44398437 73.33902344 4.44140625 73.34765625 C5.42496094 73.35216797 6.40851563 73.35667969 7.421875 73.36132812 C9.84511416 73.37309142 12.26822898 73.38952941 14.69140625 73.41015625 C12.95082652 81.18569002 10.71600961 87.16677038 5.69140625 93.41015625 C4.86189453 94.44462891 4.86189453 94.44462891 4.015625 95.5 C-4.07716077 104.52856828 -16.07280124 109.6818976 -28.06420898 110.62744141 C-46.47854351 111.37665585 -60.61622019 109.77926297 -75.3359375 97.75390625 C-85.27792665 88.52982879 -90.73357344 74.89295067 -91.46972656 61.47265625 C-91.75847987 40.41381023 -91.87654209 19.40832253 -76.23828125 3.14453125 C-54.51127373 -16.38338644 -23.72042386 -16.33538496 0 0 Z M-57.30859375 19.41015625 C-60.66762167 24.74814635 -62.2624403 29.13323554 -63.30859375 35.41015625 C-46.14859375 35.41015625 -28.98859375 35.41015625 -11.30859375 35.41015625 C-12.33970177 25.09907609 -13.4805363 20.41641668 -21.24609375 13.97265625 C-33.48122701 7.73024132 -48.06406074 8.63611413 -57.30859375 19.41015625 Z " fill="#FBFAF6" transform="translate(1199.30859375,460.58984375)"/>
<path d="M0 0 C1.60488281 0.01450195 1.60488281 0.01450195 3.2421875 0.02929688 C4.35335938 0.05443359 5.46453125 0.07957031 6.609375 0.10546875 C8.29933594 0.12577148 8.29933594 0.12577148 10.0234375 0.14648438 C12.80256764 0.1818123 15.58072863 0.23114355 18.359375 0.29296875 C17.72606265 5.06866083 16.39249363 9.3850643 14.71875 13.87890625 C14.30765739 15.00141785 14.30765739 15.00141785 13.88825989 16.14660645 C12.96739614 18.65576224 12.03853939 21.16187596 11.109375 23.66796875 C10.44496644 25.47141944 9.78083009 27.27497043 9.11694336 29.07861328 C2.11868635 48.05753031 -5.00388812 66.99051163 -12.12078857 85.9251709 C-15.86050904 95.8753247 -19.59149551 105.82851543 -23.29296875 115.79296875 C-23.65581467 116.76968536 -24.01866058 117.74640198 -24.39250183 118.75271606 C-26.06525912 123.2573313 -27.73589272 127.76272339 -29.40405273 132.26904297 C-31.13797345 136.94806936 -32.88326314 141.62269602 -34.640625 146.29296875 C-34.95519653 147.1296106 -35.26976807 147.96625244 -35.59387207 148.82824707 C-36.54294955 151.34249911 -37.50047495 153.85335917 -38.4609375 156.36328125 C-38.75064423 157.13155243 -39.04035095 157.89982361 -39.33883667 158.69137573 C-41.41017147 164.06251522 -41.41017147 164.06251522 -43.640625 166.29296875 C-46.25439453 166.52001953 -46.25439453 166.52001953 -49.5234375 166.48828125 C-50.69003906 166.48183594 -51.85664062 166.47539063 -53.05859375 166.46875 C-54.28191406 166.45199219 -55.50523438 166.43523437 -56.765625 166.41796875 C-57.99667969 166.40894531 -59.22773437 166.39992188 -60.49609375 166.390625 C-63.54446315 166.36699423 -66.59244882 166.33404929 -69.640625 166.29296875 C-68.08968548 159.82942612 -66.09497377 153.62203515 -63.72265625 147.421875 C-63.45911346 146.72766449 -63.19557068 146.03345398 -62.92404175 145.31820679 C-61.82864422 142.4384848 -60.73034628 139.56042106 -59.6027832 136.69311523 C-58.77018001 134.56760202 -57.96361492 132.43354788 -57.16015625 130.296875 C-56.90708206 129.67148331 -56.65400787 129.04609161 -56.39326477 128.40174866 C-52.52081522 117.91681388 -54.67808751 108.42288339 -58.78515625 98.41015625 C-59.22251602 97.29617966 -59.65987579 96.18220306 -60.11048889 95.0344696 C-61.53982118 91.40479441 -62.99654474 87.78678411 -64.453125 84.16796875 C-65.45220781 81.64893016 -66.44451057 79.12724637 -67.43603516 76.60522461 C-68.96329171 72.72384603 -70.49196339 68.84307423 -72.03009033 64.96598816 C-76.88004363 52.73825178 -81.59283611 40.46024053 -86.25985718 28.16143799 C-87.50191253 24.89156858 -88.75014828 21.62411 -89.99926758 18.35693359 C-90.75239938 16.37868864 -91.50526347 14.40034173 -92.2578125 12.421875 C-92.60360855 11.51942551 -92.9494046 10.61697601 -93.30567932 9.68717957 C-93.61585495 8.86816666 -93.92603058 8.04915375 -94.24560547 7.20532227 C-94.51678192 6.49344254 -94.78795837 5.78156281 -95.06735229 5.04811096 C-95.640625 3.29296875 -95.640625 3.29296875 -95.640625 1.29296875 C-85.740625 1.29296875 -75.840625 1.29296875 -65.640625 1.29296875 C-59.14743605 18.21184136 -52.80708968 35.17734236 -46.61911011 52.21017456 C-45.84106687 54.35068438 -45.06137995 56.49059745 -44.28005981 58.62991333 C-43.17264627 61.66426697 -42.0717243 64.70089642 -40.97265625 67.73828125 C-40.63566711 68.65895889 -40.29867798 69.57963654 -39.95147705 70.5282135 C-39.64627136 71.37629074 -39.34106567 72.22436798 -39.02661133 73.09814453 C-38.75778641 73.83896271 -38.48896149 74.57978088 -38.21199036 75.3430481 C-37.640625 77.29296875 -37.640625 77.29296875 -37.640625 80.29296875 C-36.980625 80.29296875 -36.320625 80.29296875 -35.640625 80.29296875 C-35.40722412 79.10147217 -35.17382324 77.90997559 -34.93334961 76.68237305 C-33.44049927 69.98635274 -31.1670542 63.54843897 -28.95703125 57.0625 C-28.49596663 55.69977793 -28.03519203 54.33695769 -27.57469177 52.9740448 C-26.61361387 50.1331075 -25.64921873 47.29332506 -24.68237305 44.4543457 C-23.44786063 40.82860272 -22.22150104 37.20016424 -20.99757481 33.57083607 C-20.04932748 30.76182145 -19.09689502 27.95423977 -18.14320183 25.14706993 C-17.68946176 23.8099474 -17.23697278 22.4723996 -16.78579903 21.13440895 C-16.15382781 19.26240787 -15.51562793 17.39251308 -14.87719727 15.52270508 C-14.51682877 14.46175125 -14.15646027 13.40079742 -13.78517151 12.30769348 C-10.87582204 4.64449437 -8.77522956 -0.14003026 0 0 Z " fill="#FBFAF6" transform="translate(1506.640625,451.70703125)"/>
<path d="M0 0 C8.91 0 17.82 0 27 0 C27.0093457 2.24989746 27.01869141 4.49979492 27.02832031 6.81787109 C27.0622063 14.28187376 27.11781929 21.74560332 27.18390274 29.20938683 C27.22328019 33.73123931 27.2555161 38.25289989 27.27099609 42.77490234 C27.28622719 47.14532125 27.32078584 51.51521224 27.36830902 55.88539505 C27.38305666 57.54615291 27.39103719 59.20698617 27.39188385 60.8678093 C27.22947901 75.08341694 27.22947901 75.08341694 33.30523682 87.59506226 C38.05540188 92.00879659 44.05430969 94.10388378 50.4375 94.4375 C56.82783797 94.19468923 61.97851338 91.70703314 66.8125 87.625 C72.88419938 80.33896075 75.21847947 74.11419666 75.31884766 64.59594727 C75.32889328 63.892668 75.3389389 63.18938873 75.34928894 62.46479797 C75.37991174 60.16534157 75.39709709 57.86600042 75.4140625 55.56640625 C75.43279104 53.96214317 75.45236569 52.35788977 75.4727478 50.75364685 C75.52389711 46.55011724 75.56361441 42.34655576 75.60089111 38.1428833 C75.64103911 33.84582749 75.692082 29.54890232 75.7421875 25.25195312 C75.83874297 16.83471843 75.92220432 8.41742901 76 0 C84.91 0 93.82 0 103 0 C103 38.28 103 76.56 103 116 C94.75 116 86.5 116 78 116 C77.01 111.545 77.01 111.545 76 107 C75.18208984 107.68835938 75.18208984 107.68835938 74.34765625 108.390625 C62.64232622 117.91496191 51.90073772 119.95291312 37 119 C25.10052175 117.47043744 14.47231626 112.64538783 7 103 C-0.33299372 91.25940899 -0.42216563 79.0227495 -0.6875 65.625 C-0.70779266 64.74603058 -0.72808533 63.86706116 -0.74899292 62.9614563 C-1.22355819 41.96034853 -0.66915463 20.99086596 0 0 Z " fill="#FBFAF6" transform="translate(984,263)"/>
<path d="M0 0 C8.58 0 17.16 0 26 0 C26.01458252 2.22484131 26.02916504 4.44968262 26.04418945 6.74194336 C26.09467577 14.11811563 26.16129515 21.49407991 26.23571491 28.87004757 C26.28031647 33.3392091 26.31959471 37.80828161 26.34643555 42.27758789 C26.37257095 46.59606297 26.41304463 50.91419361 26.46318626 55.2324543 C26.47978608 56.87450415 26.49134302 58.51661349 26.49761391 60.15873528 C26.48816758 76.10034236 26.48816758 76.10034236 34.34375 89.55859375 C39.11001956 93.70659721 44.2710104 94.55626947 50.375 94.3515625 C57.55016285 93.39060319 63.36224752 90.62151815 68 85 C68.8353125 84.071875 68.8353125 84.071875 69.6875 83.125 C72.893018 77.93511371 73.24743712 72.37535706 73.22705078 66.41235352 C73.22734283 65.68956711 73.22763489 64.9667807 73.22793579 64.22209167 C73.22655393 61.85756997 73.21104739 59.4933722 73.1953125 57.12890625 C73.19157829 55.47981437 73.18873325 53.83072026 73.18673706 52.18162537 C73.17913271 47.85960674 73.15951198 43.53772439 73.1373291 39.21575928 C73.11680148 34.79815514 73.1077206 30.3805288 73.09765625 25.96289062 C73.07626281 17.30852451 73.04110703 8.65429495 73 0 C82.24 0 91.48 0 101 0 C101 38.28 101 76.56 101 116 C92.75 116 84.5 116 76 116 C75.505 112.04 75.505 112.04 75 108 C74.42894531 108.45890625 73.85789062 108.9178125 73.26953125 109.390625 C60.7321941 118.8783396 47.30793555 120.52327524 32 119 C20.5997481 116.83892988 11.59513908 110.50771319 5 101 C1.26804742 93.49085905 -0.15106328 86.90323466 -0.11352539 78.55957031 C-0.11367142 77.71042557 -0.11381744 76.86128082 -0.1139679 75.98640442 C-0.11327201 73.1836185 -0.10549476 70.38089929 -0.09765625 67.578125 C-0.09579092 65.63328081 -0.09436756 63.68843614 -0.09336853 61.74359131 C-0.08955242 56.62752991 -0.07972984 51.51149695 -0.06866455 46.39544678 C-0.05843098 41.17379135 -0.05386674 35.95213132 -0.04882812 30.73046875 C-0.03810678 20.48696467 -0.02051728 10.24348915 0 0 Z " fill="#FBFAF6" transform="translate(1436,263)"/>
<path d="M0 0 C12.2020964 12.09690591 13.8932019 27.06868944 14.03955078 43.40625 C14.04705721 46.45333331 14.02871545 49.49987446 14.0078125 52.546875 C14.00406927 54.18310368 14.00122852 55.81933465 13.99923706 57.45556641 C13.99170345 61.70347595 13.97214707 65.95124253 13.9498291 70.19909668 C13.92914551 74.55719063 13.92018787 78.91530832 13.91015625 83.2734375 C13.88888833 91.78132201 13.85379389 100.2890641 13.8125 108.796875 C4.9025 108.796875 -4.0075 108.796875 -13.1875 108.796875 C-13.217229 105.64137085 -13.217229 105.64137085 -13.24755859 102.42211914 C-13.31468506 95.44511947 -13.39232043 88.46826463 -13.47502708 81.49143314 C-13.52481726 77.26442258 -13.57114777 73.03743494 -13.609375 68.81030273 C-13.64644741 64.72530838 -13.69286463 60.64051425 -13.74556351 56.55569267 C-13.76399151 55.00294979 -13.7791415 53.45016417 -13.79084396 51.89735603 C-13.79717042 35.27115861 -13.79717042 35.27115861 -21.1875 20.796875 C-26.16244457 16.68713818 -31.14183525 15.14166724 -37.5 14.421875 C-45.61738918 15.2473722 -51.36770534 18.1731794 -56.71484375 24.30859375 C-62.01490208 33.26386472 -61.6597921 42.6035947 -61.69921875 52.64453125 C-61.71608877 54.26835976 -61.73424209 55.89217539 -61.75361633 57.51597595 C-61.80087066 61.7622373 -61.83083815 66.00844643 -61.85705566 70.25488281 C-61.88698604 74.59906319 -61.93347311 78.94306406 -61.97851562 83.28710938 C-62.06426892 91.7902907 -62.13020487 100.29345426 -62.1875 108.796875 C-70.7675 108.796875 -79.3475 108.796875 -88.1875 108.796875 C-88.1875 70.516875 -88.1875 32.236875 -88.1875 -7.203125 C-79.9375 -7.203125 -71.6875 -7.203125 -63.1875 -7.203125 C-62.8575 -4.563125 -62.5275 -1.923125 -62.1875 0.796875 C-61.66953857 0.53471191 -61.15157715 0.27254883 -60.61791992 0.00244141 C-40.31989369 -10.18373933 -19.61299945 -15.85384122 0 0 Z " fill="#FBFAF6" transform="translate(1204.1875,270.203125)"/>
<path d="M0 0 C7.27253309 6.19016612 10.11211287 13.40334483 10.984375 22.765625 C11 25 11 25 10 28 C6.29302295 28.26260373 2.58843642 28.42156838 -1.125 28.5625 C-2.17171875 28.63791016 -3.2184375 28.71332031 -4.296875 28.79101562 C-7.4303192 28.88025929 -9.97501691 28.83913642 -13 28 C-15.10559839 25.88988259 -16.35693982 23.89729276 -17.69604492 21.24194336 C-20.32620586 16.71979996 -25.18763646 14.60412118 -30 13 C-36.08346588 12.37605478 -41.62501752 12.94769094 -47 16 C-49.45077196 18.38793166 -50.70534891 20.32403573 -52.0625 23.4375 C-51.98456924 26.63266114 -50.81353565 28.16207717 -48.74584961 30.53100586 C-45.29326002 33.43608648 -41.02515009 34.36200183 -36.75 35.5625 C-35.28759888 36.00227173 -35.28759888 36.00227173 -33.7956543 36.45092773 C-29.26601833 37.80482056 -24.71635539 39.08265064 -20.16015625 40.34375 C-7.66871422 43.82069268 3.5469642 47.67430835 11 59 C15.5570065 68.79140586 14.66846147 77.83043575 11.31640625 87.8515625 C7.27139784 97.52597431 -0.28172947 103.76227926 -9.59375 108.25 C-25.78116879 114.72496752 -43.89520199 114.54257419 -60 108 C-69.38374591 103.62802748 -76.60602793 97.23493018 -80.5 87.5 C-82.23656096 82.64960559 -82.15096774 78.08258068 -82 73 C-77.98071577 72.70793351 -73.96416166 72.53150545 -69.9375 72.375 C-68.80376953 72.29121094 -67.67003906 72.20742188 -66.50195312 72.12109375 C-63.07184663 72.02109065 -60.30992416 72.07454332 -57 73 C-53.8981751 75.96763224 -52.07872138 79.28457148 -50 83 C-45.58145231 87.90714388 -40.78777419 89.71649754 -34.3125 90.375 C-27.57755809 90.18072283 -21.24109569 87.65841081 -15.875 83.6875 C-13.51972168 80.31160108 -13 78.10844552 -13 74 C-14.53742222 69.59272296 -17.15361035 68.09315086 -21.24633789 66.11303711 C-28.25833712 63.27876949 -35.72149002 61.50501279 -43.0078125 59.50537109 C-69.8853709 52.0894594 -69.8853709 52.0894594 -77 42 C-81.13170376 34.43511793 -81.0716415 25.35106321 -79.4140625 17.07421875 C-76.79074671 8.56649278 -71.60791008 1.97568035 -64.1328125 -2.8515625 C-61.13775359 -4.43077538 -58.15098253 -5.76328017 -55 -7 C-54.14921875 -7.33902344 -53.2984375 -7.67804688 -52.421875 -8.02734375 C-34.81985607 -13.88568441 -15.36584234 -9.55122458 0 0 Z " fill="#FBFAF6" transform="translate(706,270)"/>
<path d="M0 0 C9.24825649 8.4394736 12.60025952 20.43930403 15.5546875 32.1875 C11.49256538 32.33297545 7.43111463 32.42163226 3.3671875 32.5 C2.21669922 32.54189453 1.06621094 32.58378906 -0.11914062 32.62695312 C-8.66979539 32.75087566 -8.66979539 32.75087566 -12.47265625 29.98828125 C-13.12363281 29.06402344 -13.77460937 28.13976562 -14.4453125 27.1875 C-15.17492187 26.33929688 -15.90453125 25.49109375 -16.65625 24.6171875 C-17.37039063 23.77414062 -18.08453125 22.93109375 -18.8203125 22.0625 C-23.34504376 17.07787802 -26.58477656 14.57355359 -33.453125 13.88671875 C-42.14989254 13.53360174 -48.42975499 14.90204385 -55.1953125 20.4375 C-56.3090625 21.79875 -56.3090625 21.79875 -57.4453125 23.1875 C-57.87585938 23.69410156 -58.30640625 24.20070313 -58.75 24.72265625 C-65.2906792 33.52741671 -66.24378634 46.59012941 -65.015625 57.16015625 C-63.32011183 66.16031179 -59.80254558 76.03291108 -52.33984375 81.8203125 C-44.89254639 86.30663621 -38.29979605 86.92944547 -29.90234375 84.96875 C-23.26307891 82.857696 -19.08132399 79.52067469 -15.55078125 73.54296875 C-13.97320304 70.18155652 -12.74910364 66.66427636 -11.4453125 63.1875 C-2.8653125 63.1875 5.7146875 63.1875 14.5546875 63.1875 C14.5546875 74.69336805 12.1197603 82.7673464 5.5546875 92.1875 C5.10222656 92.8371875 4.64976562 93.486875 4.18359375 94.15625 C-3.01418022 103.4542243 -15.14510174 108.19021462 -26.4453125 110.1875 C-44.74068901 111.54764643 -60.47219658 109.49518516 -75.0703125 97.625 C-85.3210608 88.07194661 -90.79461918 73.58592991 -91.5859375 59.72412109 C-92.28384919 39.64171207 -90.76793056 20.9182652 -77.2578125 4.875 C-56.99660632 -16.19800743 -23.0667844 -17.09742486 0 0 Z " fill="#FBFAF6" transform="translate(834.4453125,460.8125)"/>
<path d="M0 0 C8.25 0 16.5 0 25 0 C25.0679385 16.82122455 25.12311 33.64233049 25.15543652 50.46365452 C25.17085077 58.27554325 25.19183506 66.08734016 25.22631836 73.89916992 C25.25638861 80.71456578 25.27561445 87.52989508 25.28226548 94.34535545 C25.28614818 97.94811531 25.29515674 101.55068489 25.31719017 105.15338326 C25.55912158 146.33151313 25.55912158 146.33151313 15.6875 159.375 C9.43366219 165.48339972 3.53168023 167.14307399 -5.0625 167.125 C-6.29097656 167.12757813 -7.51945312 167.13015625 -8.78515625 167.1328125 C-12 167 -12 167 -15 166 C-15 159.4 -15 152.8 -15 146 C-10.545 144.02 -10.545 144.02 -6 142 C-1.87468328 136.3276895 -0.88821479 131.32890159 -0.84178162 124.46342468 C-0.8319928 123.36271133 -0.82220398 122.26199799 -0.81211853 121.12792969 C-0.80636307 119.93031006 -0.8006076 118.73269043 -0.79467773 117.4987793 C-0.78477814 116.23008499 -0.77487854 114.96139069 -0.76467896 113.6542511 C-0.73770621 110.18360345 -0.71665549 106.71294231 -0.69667697 103.2422483 C-0.67477019 99.61206098 -0.64740451 95.98191489 -0.62062073 92.35176086 C-0.57075717 85.48125231 -0.5257949 78.61072079 -0.48259836 71.74016744 C-0.43317175 63.91671486 -0.37827377 56.09330367 -0.32291877 48.26989114 C-0.20919603 32.17996424 -0.10305818 16.08999929 0 0 Z " fill="#FBFAF6" transform="translate(1383,263)"/>
<path d="M0 0 C-1.52206009 2.62901288 -2.84365964 4.84365964 -5 7 C3.91 6.01 3.91 6.01 13 5 C7.125 12.875 7.125 12.875 6 14 C18.375 12.515 18.375 12.515 31 11 C27.66410178 15.16987278 25.27873037 17.48005189 21.0625 20.5 C16.98560215 23.42753221 13.45447354 26.38648072 10 30 C11.03125 29.71125 12.0625 29.4225 13.125 29.125 C19.32301766 27.55871395 25.6706661 26.83561431 32 26 C32.33 26.99 32.66 27.98 33 29 C31.83723958 29.734375 30.67447917 30.46875 29.51171875 31.203125 C28.75133301 31.68338135 27.99094727 32.1636377 27.20751953 32.65844727 C25.51192781 33.72932136 23.81628894 34.80012081 22.12060547 35.87084961 C17.64050501 38.6999302 13.16117759 41.53021902 8.68359375 44.36328125 C7.83514893 44.89985352 6.9867041 45.43642578 6.11254883 45.98925781 C4.48579278 47.0180944 2.85931626 48.04737312 1.2331543 49.07714844 C-0.84187167 50.38910903 -2.92030264 51.69546256 -5 53 C-5.96164062 53.60714844 -6.92328125 54.21429688 -7.9140625 54.83984375 C-10 56 -10 56 -12 56 C-9.86662595 47.93519961 -7.49320448 39.96053614 -5 32 C-6.12019531 32.44472656 -7.24039063 32.88945312 -8.39453125 33.34765625 C-9.8669972 33.91976086 -11.33966403 34.49134865 -12.8125 35.0625 C-13.55048828 35.35705078 -14.28847656 35.65160156 -15.04882812 35.95507812 C-20.66015625 38.11328125 -20.66015625 38.11328125 -24 37 C-21.36 33.04 -18.72 29.08 -16 25 C-22.35755674 26.84277007 -28.56059386 28.88306614 -34.75 31.23046875 C-37 32 -37 32 -39 32 C-37.53181332 28.89257577 -35.79975 26.09528261 -33.875 23.25 C-33.33617187 22.45078125 -32.79734375 21.6515625 -32.2421875 20.828125 C-31.83226562 20.22484375 -31.42234375 19.6215625 -31 19 C-31.56509277 19.18175781 -32.13018555 19.36351562 -32.71240234 19.55078125 C-35.26565409 20.37017494 -37.82029847 21.1851383 -40.375 22 C-41.26445313 22.28617188 -42.15390625 22.57234375 -43.0703125 22.8671875 C-43.92109375 23.13789063 -44.771875 23.40859375 -45.6484375 23.6875 C-46.43395996 23.93886719 -47.21948242 24.19023437 -48.02880859 24.44921875 C-50 25 -50 25 -52 25 C-51.67 23.02 -51.34 21.04 -51 19 C-56.60059158 17.52762225 -62.15679377 16.39246158 -67.875 15.4921875 C-69.08990112 15.29666794 -69.08990112 15.29666794 -70.3293457 15.09719849 C-72.88572204 14.68654641 -75.44283247 14.28069287 -78 13.875 C-79.74614478 13.59537058 -81.49223907 13.31542562 -83.23828125 13.03515625 C-87.49161281 12.35312418 -91.74560905 11.67539092 -96 11 C-95 9 -95 9 -93.00976562 8.23803711 C-92.15060547 8.0035083 -91.29144531 7.76897949 -90.40625 7.52734375 C-89.4575 7.26759766 -88.50875 7.00785156 -87.53125 6.74023438 C-86.5309375 6.47533203 -85.530625 6.21042969 -84.5 5.9375 C-83.530625 5.66873047 -82.56125 5.39996094 -81.5625 5.12304688 C-71.738994 2.47571764 -62.35975332 1.85032083 -52.2109375 1.71875 C-51.10827545 1.70034058 -50.0056134 1.68193115 -48.86953735 1.66296387 C-44.18752995 1.58488413 -39.50539267 1.51662799 -34.82324219 1.44775391 C-31.38990673 1.3958203 -27.9566849 1.3386692 -24.5234375 1.28125 C-23.47223724 1.26767456 -22.42103699 1.25409912 -21.33798218 1.2401123 C-14.18179379 1.11945053 -7.12674979 -0.17382317 0 0 Z " fill="#FBFAF6" transform="translate(593,138)"/>
<path d="M0 0 C7.92 0 15.84 0 24 0 C24 8.91 24 17.82 24 27 C16.08 27 8.16 27 0 27 C0 18.09 0 9.18 0 0 Z " fill="#FBFAF7" transform="translate(1384,215)"/>
</svg>
